<svg width="604" height="488" viewBox="0 0 604 488" fill="none" xmlns="http://www.w3.org/2000/svg">
<mask id="mask0_192_28" style="mask-type:alpha" maskUnits="userSpaceOnUse" x="0" y="0" width="604" height="488">
<rect width="604" height="488" fill="#F6F6F6"/>
</mask>
<g mask="url(#mask0_192_28)">
<g opacity="0.7" filter="url(#filter0_f_192_28)">
<path fill-rule="evenodd" clip-rule="evenodd" d="M463.29 -463.752C475.782 -411.239 488.146 -359.208 492.98 -307.856C497.692 -257.804 491.792 -213.423 491.368 -165.503C490.885 -110.872 506.108 -45.1984 490.282 -2.82353C474.603 39.1596 438.031 51.9253 405.194 65.2329C373.325 78.1476 338.014 81.1732 300.834 73.9511C264.598 66.9122 226.643 53.3016 190.495 23.5278C155.457 -5.33169 128.566 -55.7729 96.4717 -94.3749C64.7315 -132.551 29.9483 -162.022 0.701617 -204.748C-31.5939 -251.928 -63.5605 -301.829 -84.2958 -358.456C-105.965 -417.633 -123.361 -482.407 -121.422 -538.259C-119.486 -594.031 -91.9926 -628.186 -73.4944 -669.611C-56.2026 -708.334 -45.5009 -758.801 -15.2009 -776.129C15.155 -793.49 57.4037 -769.984 94.4063 -765.632C126.26 -761.886 156.652 -764.654 189.583 -752.046C222.322 -739.512 254.118 -708.158 286.976 -691.906C329.688 -670.778 376.616 -689.168 413.688 -641.196C448.931 -595.591 449.059 -523.578 463.29 -463.752Z" fill="url(#paint0_linear_192_28)"/>
</g>
</g>
<defs>
<filter id="filter0_f_192_28" x="-371.57" y="-1032.44" width="1119.07" height="1360.22" filterUnits="userSpaceOnUse" color-interpolation-filters="sRGB">
<feFlood flood-opacity="0" result="BackgroundImageFix"/>
<feBlend mode="normal" in="SourceGraphic" in2="BackgroundImageFix" result="shape"/>
<feGaussianBlur stdDeviation="125" result="effect1_foregroundBlur_192_28"/>
</filter>
<linearGradient id="paint0_linear_192_28" x1="485.833" y1="-463.194" x2="-49.8589" y2="-265.253" gradientUnits="userSpaceOnUse">
<stop stop-color="#EE3E4B"/>
<stop offset="1" stop-color="#0039A6"/>
</linearGradient>
</defs>
</svg>
