<svg width="12" height="12" viewBox="0 0 12 12" fill="none" xmlns="http://www.w3.org/2000/svg">
<mask id="path-1-inside-1_62_2" fill="white">
<path d="M8.15808 7.54568C6.11124 7.54568 4.45306 5.88667 4.45306 3.84074C4.45306 3.16682 4.64646 2.5436 4.96081 2C3.25483 2.49233 2 4.0468 2 5.91115C2 8.16877 3.82997 10 6.08791 10C7.95216 10 9.50809 8.7439 10 7.03895C9.45495 7.35258 8.832 7.54568 8.15808 7.54568Z"/>
</mask>
<path d="M4.96081 2L8.42351 4.00244L13.3969 -4.59783L3.85171 -1.84316L4.96081 2ZM10 7.03895L13.8432 8.1478L16.5885 -1.36712L8.00502 3.57195L10 7.03895ZM8.15808 3.54568C8.32092 3.54568 8.45306 3.67807 8.45306 3.84074H0.453064C0.453064 8.09527 3.90156 11.5457 8.15808 11.5457V3.54568ZM8.45306 3.84074C8.45306 3.88969 8.44563 3.93357 8.43632 3.96627C8.42754 3.99715 8.41981 4.00883 8.42351 4.00244L1.49812 -0.0024364C0.874643 1.07571 0.453064 2.38279 0.453064 3.84074H8.45306ZM3.85171 -1.84316C0.511667 -0.879255 -2 2.18488 -2 5.91115H6C6 5.9029 6.00066 5.89849 6.0009 5.89705C6.00116 5.89551 6.00138 5.89491 6.00144 5.89472C6.0015 5.89456 6.00277 5.89079 6.00799 5.88403C6.0209 5.86728 6.0433 5.85084 6.06992 5.84316L3.85171 -1.84316ZM-2 5.91115C-2 10.3765 1.61943 14 6.08791 14V6C6.06859 6 6.06024 5.99687 6.05538 5.99482C6.04785 5.99163 6.03713 5.98524 6.02618 5.97428C6.01522 5.96332 6.0087 5.95246 6.00538 5.94461C6.00319 5.93942 6 5.93072 6 5.91115H-2ZM6.08791 14C9.8137 14 12.8797 11.4874 13.8432 8.1478L6.15676 5.93011C6.14958 5.95501 6.13353 5.9777 6.11575 5.99141C6.10857 5.99694 6.10441 5.99841 6.10399 5.99855C6.10368 5.99866 6.10305 5.99887 6.10155 5.99913C6.10017 5.99936 6.09591 6 6.08791 6V14ZM8.00502 3.57195C7.99557 3.57739 8.00518 3.57044 8.03486 3.56202C8.06643 3.55305 8.1096 3.54568 8.15808 3.54568V11.5457C9.61562 11.5457 10.9197 11.1247 11.995 10.5059L8.00502 3.57195Z" fill="white" mask="url(#path-1-inside-1_62_2)"/>
</svg>
