<svg width="8" height="6" viewBox="0 0 8 6" fill="none" xmlns="http://www.w3.org/2000/svg">
<path d="M6.92342 0.179581L2.9253 4.32349L1.09638 2.27482C1.03773 2.20909 0.96783 2.15664 0.890669 2.12049C0.813507 2.08433 0.730595 2.06516 0.646667 2.06408C0.562738 2.063 0.479438 2.08003 0.40152 2.11419C0.323603 2.14835 0.252594 2.19897 0.19255 2.26318C0.132505 2.32738 0.0846009 2.4039 0.0515707 2.48837C0.0185405 2.57283 0.00103162 2.6636 4.42296e-05 2.75547C-0.000943161 2.84735 0.0146103 2.93854 0.045816 3.02383C0.0770218 3.10913 0.123269 3.18686 0.181917 3.25259L2.45744 5.79015C2.51336 5.85869 2.58233 5.91298 2.65949 5.94918C2.73666 5.98538 2.82013 6.00262 2.90404 5.99968C3.06788 5.9948 3.22535 5.92913 3.35063 5.81344L7.79535 1.20392C7.91809 1.07957 7.99132 0.907424 7.99928 0.724552C8.00723 0.541679 7.94928 0.362699 7.83788 0.226142C7.72063 0.0902546 7.5598 0.00946457 7.38923 0.00078007C7.21867 -0.00790443 7.05168 0.0561939 6.92342 0.179581Z" fill="#EE3E4B"/>
</svg>
