<svg width="448" height="368" viewBox="0 0 448 368" fill="none" xmlns="http://www.w3.org/2000/svg">
<mask id="mask0_174_179" style="mask-type:alpha" maskUnits="userSpaceOnUse" x="0" y="-1" width="448" height="369">
<rect y="-0.00012207" width="448" height="368" rx="2" fill="#FCFCFC"/>
</mask>
<g mask="url(#mask0_174_179)">
<g opacity="0.8" filter="url(#filter0_f_174_179)">
<path fill-rule="evenodd" clip-rule="evenodd" d="M224.949 170.807C179.639 226.548 199.404 351.11 136.943 386.624C42.9678 440.057 -12.7843 636.391 -104.188 578.603C-164.996 540.158 -349.12 669.431 -341.722 548.057C-337.843 484.431 -110.276 204.952 -153.38 113.077C-169.99 4.14182 -360.937 -70.755 -301.994 -163.849C-246.268 -251.864 -112.96 -117.222 -8.74173 -115.365C113.285 -113.192 260.082 -246.98 337.264 -152.464C413.214 -59.4588 300.659 77.6662 224.949 170.807Z" fill="url(#paint0_linear_174_179)"/>
</g>
</g>
<defs>
<filter id="filter0_f_174_179" x="-611.938" y="-463.673" width="1244.44" height="1335.05" filterUnits="userSpaceOnUse" color-interpolation-filters="sRGB">
<feFlood flood-opacity="0" result="BackgroundImageFix"/>
<feBlend mode="normal" in="SourceGraphic" in2="BackgroundImageFix" result="shape"/>
<feGaussianBlur stdDeviation="135" result="effect1_foregroundBlur_174_179"/>
</filter>
<linearGradient id="paint0_linear_174_179" x1="284.214" y1="195.506" x2="-354.914" y2="-1.95752" gradientUnits="userSpaceOnUse">
<stop stop-color="#EE3E4B"/>
<stop offset="1" stop-color="#0039A6"/>
</linearGradient>
</defs>
</svg>
