<svg width="292" height="368" viewBox="0 0 292 368" fill="none" xmlns="http://www.w3.org/2000/svg">
<mask id="mask0_174_389" style="mask-type:alpha" maskUnits="userSpaceOnUse" x="0" y="0" width="292" height="368">
<rect width="292" height="368" rx="2" fill="#FCFCFC"/>
</mask>
<g mask="url(#mask0_174_389)">
<g opacity="0.8" filter="url(#filter0_f_174_389)">
<path fill-rule="evenodd" clip-rule="evenodd" d="M283.974 155.762C295.242 59.7971 182.997 -67.4044 228.323 -152.763C296.519 -281.191 218.286 -544.339 363.744 -544.611C460.514 -544.792 576.406 -824.335 655.506 -681.17C696.972 -606.12 640.035 -124.687 755.219 -51.4308C852.617 60.3 1123.45 7.69235 1123.63 155.903C1123.8 296.026 875.349 239.234 755.661 312.26C615.523 397.765 545.274 655.524 389.487 603.836C236.189 552.975 265.147 316.113 283.974 155.762Z" fill="url(#paint0_linear_174_389)"/>
</g>
</g>
<defs>
<filter id="filter0_f_174_389" x="-52.5131" y="-991.973" width="1446.14" height="1872.6" filterUnits="userSpaceOnUse" color-interpolation-filters="sRGB">
<feFlood flood-opacity="0" result="BackgroundImageFix"/>
<feBlend mode="normal" in="SourceGraphic" in2="BackgroundImageFix" result="shape"/>
<feGaussianBlur stdDeviation="135" result="effect1_foregroundBlur_174_389"/>
</filter>
<linearGradient id="paint0_linear_174_389" x1="198.867" y1="170.439" x2="1067.01" y2="-66.0907" gradientUnits="userSpaceOnUse">
<stop stop-color="#EE3E4B"/>
<stop offset="1" stop-color="#0039A6"/>
</linearGradient>
</defs>
</svg>
