<svg width="292" height="368" viewBox="0 0 292 368" fill="none" xmlns="http://www.w3.org/2000/svg">
<mask id="mask0_174_175" style="mask-type:alpha" maskUnits="userSpaceOnUse" x="0" y="-1" width="293" height="369">
<rect x="0.00012207" y="-0.00012207" width="292" height="368" rx="2" fill="#FCFCFC"/>
</mask>
<g mask="url(#mask0_174_175)">
<g opacity="0.8" filter="url(#filter0_f_174_175)">
<path fill-rule="evenodd" clip-rule="evenodd" d="M68.9492 558.807C23.6389 614.548 43.4038 739.11 -19.0567 774.624C-113.032 828.057 -168.784 1024.39 -260.188 966.603C-320.996 928.158 -505.121 1057.43 -497.722 936.057C-493.843 872.431 -266.276 592.952 -309.38 501.077C-325.991 392.142 -516.937 317.245 -457.995 224.151C-402.268 136.136 -268.96 270.778 -164.742 272.635C-42.7152 274.808 104.081 141.02 181.264 235.536C257.213 328.541 144.659 465.666 68.9492 558.807Z" fill="url(#paint0_linear_174_175)"/>
</g>
</g>
<defs>
<filter id="filter0_f_174_175" x="-767.939" y="-75.6726" width="1244.44" height="1335.05" filterUnits="userSpaceOnUse" color-interpolation-filters="sRGB">
<feFlood flood-opacity="0" result="BackgroundImageFix"/>
<feBlend mode="normal" in="SourceGraphic" in2="BackgroundImageFix" result="shape"/>
<feGaussianBlur stdDeviation="135" result="effect1_foregroundBlur_174_175"/>
</filter>
<linearGradient id="paint0_linear_174_175" x1="128.214" y1="583.506" x2="-510.914" y2="386.042" gradientUnits="userSpaceOnUse">
<stop stop-color="#EE3E4B"/>
<stop offset="1" stop-color="#0039A6"/>
</linearGradient>
</defs>
</svg>
