<svg width="40" height="40" viewBox="0 0 40 40" fill="none" xmlns="http://www.w3.org/2000/svg">
<path d="M8 4L18.6087 14.5493M29.2174 25.0987L18.6087 14.5493M18.6087 14.5493V33.5381" stroke="white" stroke-width="2"/>
<path d="M20.5654 33.0114C20.5654 34.1202 19.6792 35.0004 18.6089 35.0004C17.5386 35.0004 16.6523 34.1202 16.6523 33.0114C16.6523 31.9026 17.5386 31.0225 18.6089 31.0225C19.6792 31.0225 20.5654 31.9026 20.5654 33.0114Z" fill="#52565C" stroke="white" stroke-width="2"/>
<path d="M20.5654 14.7243C20.5654 15.8331 19.6792 16.7133 18.6089 16.7133C17.5386 16.7133 16.6523 15.8331 16.6523 14.7243C16.6523 13.6155 17.5386 12.7354 18.6089 12.7354C19.6792 12.7354 20.5654 13.6155 20.5654 14.7243Z" fill="#52565C" stroke="white" stroke-width="2"/>
<path d="M31 24.9226C31 26.0314 30.1137 26.9116 29.0434 26.9116C27.9731 26.9116 27.0869 26.0314 27.0869 24.9226C27.0869 23.8138 27.9731 22.9336 29.0434 22.9336C30.1137 22.9336 31 23.8138 31 24.9226Z" fill="#52565C" stroke="white" stroke-width="2"/>
</svg>
