<svg width="132" height="92" viewBox="0 0 132 92" fill="none" xmlns="http://www.w3.org/2000/svg">
<path d="M123.952 0H8.04774C3.60516 0 0 3.64555 0 8.13791V83.8621C0 88.3544 3.60516 92 8.04774 92H123.952C128.395 92 132 88.3544 132 83.8621V8.13791C132 3.64555 128.395 0 123.952 0ZM4.25806 8.13791C4.25806 6.02808 5.96129 4.30577 8.04774 4.30577H123.952C126.039 4.30577 127.742 6.02808 127.742 8.13791V16.893H4.25806V8.13791ZM127.742 83.8621C127.742 85.9719 126.039 87.6942 123.952 87.6942H8.04774C5.96129 87.6942 4.25806 85.9719 4.25806 83.8621V21.1988H127.742V83.8621Z" fill="#52565C"/>
<path d="M12.192 8.62579C11.0423 8.62579 10.0913 9.58742 10.0913 10.75C10.0913 11.9125 11.0423 12.8742 12.192 12.8742C13.3416 12.8742 14.2926 11.9125 14.2926 10.75C14.2926 9.57307 13.3558 8.62579 12.192 8.62579Z" fill="#52565C"/>
<path d="M19.7427 12.8742C20.9029 12.8742 21.8434 11.9231 21.8434 10.75C21.8434 9.57682 20.9029 8.62579 19.7427 8.62579C18.5826 8.62579 17.6421 9.57682 17.6421 10.75C17.6421 11.9231 18.5826 12.8742 19.7427 12.8742Z" fill="#52565C"/>
<path d="M27.2779 12.8742C28.438 12.8742 29.3785 11.9231 29.3785 10.75C29.3785 9.57682 28.438 8.62579 27.2779 8.62579C26.1177 8.62579 25.1772 9.57682 25.1772 10.75C25.1772 11.9231 26.1177 12.8742 27.2779 12.8742Z" fill="#52565C"/>
<path d="M65.5046 51.7842C65.2491 51.7842 65.0078 51.8417 64.7807 51.9278C64.7239 51.9421 64.6671 51.9708 64.6104 51.9995C64.3833 52.1 64.1704 52.2292 63.9858 52.4158C63.8013 52.6023 63.6736 52.8176 63.5742 53.0473C63.5458 53.1047 63.5175 53.1621 63.5033 53.2195C63.4181 53.4491 63.3613 53.6931 63.3613 53.9371V53.9515C63.3613 54.1381 63.3897 54.3103 63.4323 54.4969L69.1665 76.1262C69.422 77.0878 70.2878 77.7193 71.2246 77.7193C71.4091 77.7193 71.5936 77.6906 71.7781 77.6476C72.9136 77.3462 73.5807 76.1549 73.2826 75.0067L69.6065 61.1421L86.2697 77.992C86.6813 78.4083 87.2349 78.6236 87.7742 78.6236C88.3136 78.6236 88.8671 78.4083 89.2787 77.992C90.1162 77.1452 90.1162 75.7817 89.2787 74.9493L72.6155 58.0994L86.3265 61.8167C87.462 62.1324 88.6258 61.4435 88.9381 60.2953C89.2362 59.1471 88.5691 57.9702 87.4336 57.6544L66.0439 51.856C65.8736 51.813 65.6891 51.7842 65.5046 51.7842Z" fill="#52565C"/>
<path d="M65.4904 42.0101C66.6684 42.0101 67.6194 41.0485 67.6194 39.8572V32.4226C67.6194 31.2313 66.6684 30.2697 65.4904 30.2697C64.3123 30.2697 63.3613 31.2313 63.3613 32.4226V39.8572C63.3613 41.0485 64.3123 42.0101 65.4904 42.0101Z" fill="#EE3E4B"/>
<path d="M44.2106 56.09H51.5628C52.7409 56.09 53.6919 55.1284 53.6919 53.9371C53.6919 52.7459 52.7409 51.7842 51.5628 51.7842H44.2106C43.0325 51.7842 42.0815 52.7459 42.0815 53.9371C42.0815 55.1284 43.0467 56.09 44.2106 56.09Z" fill="#EE3E4B"/>
<path d="M54.1476 62.3618L48.9528 67.6148C48.1154 68.4616 48.1154 69.8251 48.9528 70.6576C49.3644 71.0738 49.9179 71.2891 50.4573 71.2891C50.9966 71.2891 51.5502 71.0738 51.9618 70.6576L57.1566 65.4045C57.9941 64.5577 57.9941 63.1942 57.1566 62.3618C56.3192 61.5293 54.9708 61.5293 54.1476 62.3618Z" fill="#EE3E4B"/>
<path d="M75.3396 46.1436C75.879 46.1436 76.4325 45.9284 76.8441 45.5121L82.039 40.2591C82.8764 39.4123 82.8764 38.0488 82.039 37.2163C81.2015 36.3695 79.8532 36.3695 79.0299 37.2163L73.8351 42.4694C72.9977 43.3162 72.9977 44.6797 73.8351 45.5121C74.2467 45.9284 74.7861 46.1436 75.3396 46.1436Z" fill="#EE3E4B"/>
<path d="M54.1476 45.5121C54.5592 45.9284 55.1128 46.1436 55.6521 46.1436C56.1915 46.1436 56.745 45.9284 57.1566 45.5121C57.9941 44.6653 57.9941 43.3018 57.1566 42.4694L51.9618 37.2163C51.1244 36.3695 49.776 36.3695 48.9528 37.2163C48.1154 38.0631 48.1154 39.4266 48.9528 40.2591L54.1476 45.5121Z" fill="#EE3E4B"/>
</svg>
