<svg width="292" height="368" viewBox="0 0 292 368" fill="none" xmlns="http://www.w3.org/2000/svg">
<mask id="mask0_195_70" style="mask-type:alpha" maskUnits="userSpaceOnUse" x="0" y="0" width="292" height="368">
<rect width="292" height="368" rx="2" fill="#FCFCFC"/>
</mask>
<g mask="url(#mask0_195_70)">
<g opacity="0.8" filter="url(#filter0_f_195_70)">
<path fill-rule="evenodd" clip-rule="evenodd" d="M380.949 83.3008C335.639 139.043 355.404 263.604 292.943 299.118C198.968 352.551 143.216 548.886 51.8124 491.097C-8.99613 452.652 -193.121 581.925 -185.722 460.551C-181.843 396.925 45.7244 117.446 2.61983 25.5716C-13.9906 -83.3639 -204.937 -158.261 -145.995 -251.355C-90.2682 -339.37 43.0396 -204.727 147.258 -202.871C269.285 -200.698 416.081 -334.486 493.264 -239.97C569.213 -146.965 456.659 -9.8395 380.949 83.3008Z" fill="url(#paint0_linear_195_70)"/>
</g>
</g>
<defs>
<filter id="filter0_f_195_70" x="-455.939" y="-551.178" width="1244.44" height="1335.05" filterUnits="userSpaceOnUse" color-interpolation-filters="sRGB">
<feFlood flood-opacity="0" result="BackgroundImageFix"/>
<feBlend mode="normal" in="SourceGraphic" in2="BackgroundImageFix" result="shape"/>
<feGaussianBlur stdDeviation="135" result="effect1_foregroundBlur_195_70"/>
</filter>
<linearGradient id="paint0_linear_195_70" x1="440.214" y1="108.001" x2="-198.914" y2="-89.4633" gradientUnits="userSpaceOnUse">
<stop stop-color="#EE3E4B"/>
<stop offset="1" stop-color="#0039A6"/>
</linearGradient>
</defs>
</svg>
