<svg width="292" height="368" viewBox="0 0 292 368" fill="none" xmlns="http://www.w3.org/2000/svg">
<mask id="mask0_195_90" style="mask-type:alpha" maskUnits="userSpaceOnUse" x="0" y="0" width="292" height="368">
<rect width="292" height="368" rx="2" fill="#FCFCFC"/>
</mask>
<g mask="url(#mask0_195_90)">
<g opacity="0.8" filter="url(#filter0_f_195_90)">
<path fill-rule="evenodd" clip-rule="evenodd" d="M380.949 -304.699C335.639 -248.957 355.404 -124.396 292.943 -88.8818C198.968 -35.449 143.216 160.886 51.8124 103.097C-8.99613 64.652 -193.121 193.925 -185.722 72.5514C-181.843 8.92487 45.7244 -270.554 2.61983 -362.428C-13.9906 -471.364 -204.937 -546.261 -145.995 -639.355C-90.2682 -727.37 43.0396 -592.727 147.258 -590.871C269.285 -588.698 416.081 -722.486 493.264 -627.97C569.213 -534.965 456.659 -397.84 380.949 -304.699Z" fill="url(#paint0_linear_195_90)"/>
</g>
</g>
<defs>
<filter id="filter0_f_195_90" x="-455.939" y="-939.178" width="1244.44" height="1335.05" filterUnits="userSpaceOnUse" color-interpolation-filters="sRGB">
<feFlood flood-opacity="0" result="BackgroundImageFix"/>
<feBlend mode="normal" in="SourceGraphic" in2="BackgroundImageFix" result="shape"/>
<feGaussianBlur stdDeviation="135" result="effect1_foregroundBlur_195_90"/>
</filter>
<linearGradient id="paint0_linear_195_90" x1="440.214" y1="-279.999" x2="-198.914" y2="-477.463" gradientUnits="userSpaceOnUse">
<stop stop-color="#EE3E4B"/>
<stop offset="1" stop-color="#0039A6"/>
</linearGradient>
</defs>
</svg>
