<svg width="40" height="40" viewBox="0 0 40 40" fill="none" xmlns="http://www.w3.org/2000/svg">
<path d="M20 6C12.28 6 6 12.28 6 20C6 27.72 12.28 34 20 34C27.72 34 34 27.72 34 20C34 12.28 27.72 6 20 6ZM20 32C13.383 32 8 26.617 8 20C8 13.383 13.383 8 20 8C26.617 8 32 13.383 32 20C32 26.617 26.617 32 20 32Z" fill="white"/>
<path d="M26.0645 16.5C26.6765 17.559 27.0005 18.77 27.0005 20C27.0005 23.86 23.8605 27 20.0005 27C16.1405 27 13.0005 23.86 13.0005 20C13.0005 16.14 16.1405 13 20.0005 13C20.5945 13 21.1835 13.074 21.7505 13.22L22.2495 11.283C21.5195 11.095 20.7625 11 20.0005 11C15.0385 11 11.0005 15.038 11.0005 20C11.0005 24.962 15.0385 29 20.0005 29C24.9625 29 29.0005 24.962 29.0005 20C29.0005 18.418 28.5835 16.862 27.7955 15.5L26.0645 16.5Z" fill="white"/>
<path d="M20 17.0004C18.346 17.0004 17 18.3464 17 20.0004C17 21.6544 18.346 23.0004 20 23.0004C21.654 23.0004 23 21.6544 23 20.0004C23 19.3864 22.813 18.8154 22.495 18.3394L26.8 12.6004L25.2 11.4004L20.888 17.1504C20.606 17.0614 20.311 17.0004 20 17.0004ZM20 21.0004C19.449 21.0004 19 20.5514 19 20.0004C19 19.4494 19.449 19.0004 20 19.0004C20.551 19.0004 21 19.4494 21 20.0004C21 20.5514 20.551 21.0004 20 21.0004Z" fill="white"/>
</svg>
