<svg width="1010" height="1447" viewBox="0 0 1010 1447" fill="none" xmlns="http://www.w3.org/2000/svg">
<g opacity="0.8" filter="url(#filter0_f_251_60)">
<path fill-rule="evenodd" clip-rule="evenodd" d="M261.263 537.031C290.002 492.623 265.549 402.978 308.474 372.023C373.057 325.449 398.194 177.264 469.795 212.336C517.43 235.669 641.999 126.416 646.293 215.879C648.544 262.777 504.165 485.461 543.104 549.32C563.995 627.772 709.906 667.483 674.167 740.323C640.379 809.188 531.921 721.161 455.406 728.061C365.817 736.14 268.961 845.741 204.84 782.648C141.744 720.563 213.242 611.233 261.263 537.031Z" fill="url(#paint0_linear_251_60)"/>
</g>
<g opacity="0.7" filter="url(#filter1_f_251_60)">
<path fill-rule="evenodd" clip-rule="evenodd" d="M584.571 989.185C614.378 1000.7 643.908 1012.11 670.654 1026.48C696.724 1040.48 716.559 1057.14 739.912 1072.63C766.535 1090.28 803.683 1104.85 819.305 1125.05C834.782 1145.07 829.138 1164.55 824.975 1182.63C820.934 1200.18 810.925 1216.02 795.285 1229.38C780.041 1242.39 761.017 1254.03 734.657 1259.75C709.107 1265.29 675.629 1260.51 646.261 1261.69C617.218 1262.87 591.451 1268.11 560.988 1266.78C527.349 1265.31 492.484 1262.84 457.977 1253.49C421.916 1243.71 384.502 1230.35 357.754 1211.69C331.044 1193.06 323.249 1170.57 308.963 1149.54C295.608 1129.89 274.352 1109.26 275.718 1090.96C277.087 1072.63 302.36 1062.34 316.535 1048.14C328.738 1035.92 337.273 1022.24 354.17 1012.39C370.97 1002.6 396.687 999.226 415.348 990.577C439.605 979.333 445.863 953.691 481.444 953.399C515.27 953.121 550.613 976.07 584.571 989.185Z" fill="url(#paint1_linear_251_60)"/>
</g>
<defs>
<filter id="filter0_f_251_60" x="0.0258789" y="0.0701904" width="859.75" height="982.065" filterUnits="userSpaceOnUse" color-interpolation-filters="sRGB">
<feFlood flood-opacity="0" result="BackgroundImageFix"/>
<feBlend mode="normal" in="SourceGraphic" in2="BackgroundImageFix" result="shape"/>
<feGaussianBlur stdDeviation="90" result="effect1_foregroundBlur_251_60"/>
</filter>
<filter id="filter1_f_251_60" x="95.6553" y="773.396" width="913.85" height="673.598" filterUnits="userSpaceOnUse" color-interpolation-filters="sRGB">
<feFlood flood-opacity="0" result="BackgroundImageFix"/>
<feBlend mode="normal" in="SourceGraphic" in2="BackgroundImageFix" result="shape"/>
<feGaussianBlur stdDeviation="90" result="effect1_foregroundBlur_251_60"/>
</filter>
<linearGradient id="paint0_linear_251_60" x1="215.86" y1="523.641" x2="700.044" y2="617.276" gradientUnits="userSpaceOnUse">
<stop stop-color="#EE3E4B"/>
<stop offset="1" stop-color="#0039A6"/>
</linearGradient>
<linearGradient id="paint1_linear_251_60" x1="592.181" y1="979.868" x2="514.69" y2="1268.7" gradientUnits="userSpaceOnUse">
<stop stop-color="#EE3E4B"/>
<stop offset="1" stop-color="#0039A6"/>
</linearGradient>
</defs>
</svg>
