<svg width="292" height="368" viewBox="0 0 292 368" fill="none" xmlns="http://www.w3.org/2000/svg">
<mask id="mask0_195_50" style="mask-type:alpha" maskUnits="userSpaceOnUse" x="0" y="0" width="292" height="368">
<rect width="292" height="368" rx="2" fill="#FCFCFC"/>
</mask>
<g mask="url(#mask0_195_50)">
<g opacity="0.8" filter="url(#filter0_f_195_50)">
<path fill-rule="evenodd" clip-rule="evenodd" d="M380.949 471.301C335.639 527.043 355.404 651.604 292.943 687.118C198.968 740.551 143.216 936.886 51.8124 879.097C-8.99613 840.652 -193.121 969.925 -185.722 848.551C-181.843 784.925 45.7244 505.446 2.61983 413.572C-13.9906 304.636 -204.937 229.739 -145.995 136.645C-90.2682 48.6303 43.0396 183.273 147.258 185.129C269.285 187.302 416.081 53.514 493.264 148.03C569.213 241.035 456.659 378.16 380.949 471.301Z" fill="url(#paint0_linear_195_50)"/>
</g>
</g>
<defs>
<filter id="filter0_f_195_50" x="-455.939" y="-163.178" width="1244.44" height="1335.05" filterUnits="userSpaceOnUse" color-interpolation-filters="sRGB">
<feFlood flood-opacity="0" result="BackgroundImageFix"/>
<feBlend mode="normal" in="SourceGraphic" in2="BackgroundImageFix" result="shape"/>
<feGaussianBlur stdDeviation="135" result="effect1_foregroundBlur_195_50"/>
</filter>
<linearGradient id="paint0_linear_195_50" x1="440.214" y1="496.001" x2="-198.914" y2="298.537" gradientUnits="userSpaceOnUse">
<stop stop-color="#EE3E4B"/>
<stop offset="1" stop-color="#0039A6"/>
</linearGradient>
</defs>
</svg>
