<svg width="40" height="40" viewBox="0 0 40 40" fill="none" xmlns="http://www.w3.org/2000/svg">
<path d="M31 17.4967C31 24.4752 26.5725 30.6712 20 32.9454C13.4275 30.6712 9 24.4753 9 17.4967V7H20H31V17.4967Z" stroke="white" stroke-width="2"/>
<path d="M23.727 18.8949C23.727 21.0002 22.046 22.6844 19.9997 22.6844C17.9535 22.6844 16.2725 21.0002 16.2725 18.8949C16.2725 16.7897 17.9535 15.1055 19.9997 15.1055C22.046 15.1055 23.727 16.7897 23.727 18.8949Z" stroke="white" stroke-width="2"/>
<path d="M22.5454 16.8689L24.7272 14.6584V12.2637" stroke="white" stroke-width="2"/>
<path d="M17.4546 20.7375L15.2728 22.948L15.2728 25.3428" stroke="white" stroke-width="2"/>
<path d="M17.4546 16.8689L15.2728 14.6584V12.2637" stroke="white" stroke-width="2"/>
<path d="M22.5454 20.7375L24.7272 22.948L24.7272 25.3428" stroke="white" stroke-width="2"/>
</svg>
