<svg width="292" height="368" viewBox="0 0 292 368" fill="none" xmlns="http://www.w3.org/2000/svg">
<mask id="mask0_174_328" style="mask-type:alpha" maskUnits="userSpaceOnUse" x="0" y="0" width="292" height="368">
<rect width="292" height="368" fill="#FCFCFC"/>
</mask>
<g mask="url(#mask0_174_328)">
<g opacity="0.8" filter="url(#filter0_f_174_328)">
<path fill-rule="evenodd" clip-rule="evenodd" d="M845.837 725.677C785.995 799.297 812.099 963.808 729.606 1010.71C605.491 1081.28 531.858 1340.58 411.14 1264.26C330.829 1213.49 87.652 1384.22 97.4235 1223.92C102.546 1139.89 403.099 770.774 346.17 649.433C324.232 505.56 72.0455 406.642 149.892 283.691C223.491 167.448 399.553 345.273 537.197 347.724C698.36 350.595 892.237 173.898 994.174 298.727C1094.48 421.561 945.829 602.665 845.837 725.677Z" fill="url(#paint0_linear_174_328)"/>
</g>
</g>
<defs>
<filter id="filter0_f_174_328" x="-172.863" y="-25.6973" width="1470.37" height="1590.04" filterUnits="userSpaceOnUse" color-interpolation-filters="sRGB">
<feFlood flood-opacity="0" result="BackgroundImageFix"/>
<feBlend mode="normal" in="SourceGraphic" in2="BackgroundImageFix" result="shape"/>
<feGaussianBlur stdDeviation="135" result="effect1_foregroundBlur_174_328"/>
</filter>
<linearGradient id="paint0_linear_174_328" x1="924.109" y1="758.299" x2="80.0009" y2="497.504" gradientUnits="userSpaceOnUse">
<stop stop-color="#EE3E4B"/>
<stop offset="1" stop-color="#0039A6"/>
</linearGradient>
</defs>
</svg>
