<svg width="292" height="368" viewBox="0 0 292 368" fill="none" xmlns="http://www.w3.org/2000/svg">
<mask id="mask0_195_60" style="mask-type:alpha" maskUnits="userSpaceOnUse" x="0" y="0" width="292" height="368">
<rect width="292" height="368" rx="2" fill="#FCFCFC"/>
</mask>
<g mask="url(#mask0_195_60)">
<g opacity="0.8" filter="url(#filter0_f_195_60)">
<path fill-rule="evenodd" clip-rule="evenodd" d="M692.949 83.3008C647.639 139.043 667.404 263.604 604.943 299.118C510.968 352.551 455.216 548.886 363.812 491.097C303.004 452.652 118.879 581.925 126.278 460.551C130.157 396.925 357.724 117.446 314.62 25.5716C298.009 -83.3639 107.063 -158.261 166.005 -251.355C221.732 -339.37 355.04 -204.727 459.258 -202.871C581.285 -200.698 728.081 -334.486 805.264 -239.97C881.213 -146.965 768.659 -9.8395 692.949 83.3008Z" fill="url(#paint0_linear_195_60)"/>
</g>
</g>
<defs>
<filter id="filter0_f_195_60" x="-143.939" y="-551.178" width="1244.44" height="1335.05" filterUnits="userSpaceOnUse" color-interpolation-filters="sRGB">
<feFlood flood-opacity="0" result="BackgroundImageFix"/>
<feBlend mode="normal" in="SourceGraphic" in2="BackgroundImageFix" result="shape"/>
<feGaussianBlur stdDeviation="135" result="effect1_foregroundBlur_195_60"/>
</filter>
<linearGradient id="paint0_linear_195_60" x1="752.214" y1="108.001" x2="113.086" y2="-89.4633" gradientUnits="userSpaceOnUse">
<stop stop-color="#EE3E4B"/>
<stop offset="1" stop-color="#0039A6"/>
</linearGradient>
</defs>
</svg>
