<svg width="292" height="368" viewBox="0 0 292 368" fill="none" xmlns="http://www.w3.org/2000/svg">
<mask id="mask0_195_12" style="mask-type:alpha" maskUnits="userSpaceOnUse" x="0" y="0" width="292" height="368">
<rect width="292" height="368" rx="2" fill="#FCFCFC"/>
</mask>
<g mask="url(#mask0_195_12)">
<g opacity="0.8" filter="url(#filter0_f_195_12)">
<path fill-rule="evenodd" clip-rule="evenodd" d="M845.837 -438.323C785.995 -364.703 812.099 -200.192 729.606 -153.289C605.491 -82.7188 531.858 176.584 411.14 100.262C330.829 49.4865 87.652 220.22 97.4235 59.9194C102.546 -24.1133 403.099 -393.226 346.17 -514.567C324.232 -658.44 72.0455 -757.358 149.892 -880.309C223.491 -996.552 399.553 -818.727 537.197 -816.276C698.36 -813.405 892.237 -990.102 994.174 -865.273C1094.48 -742.439 945.829 -561.335 845.837 -438.323Z" fill="url(#paint0_linear_195_12)"/>
</g>
</g>
<defs>
<filter id="filter0_f_195_12" x="-172.863" y="-1189.7" width="1470.37" height="1590.04" filterUnits="userSpaceOnUse" color-interpolation-filters="sRGB">
<feFlood flood-opacity="0" result="BackgroundImageFix"/>
<feBlend mode="normal" in="SourceGraphic" in2="BackgroundImageFix" result="shape"/>
<feGaussianBlur stdDeviation="135" result="effect1_foregroundBlur_195_12"/>
</filter>
<linearGradient id="paint0_linear_195_12" x1="924.109" y1="-405.701" x2="80.0009" y2="-666.496" gradientUnits="userSpaceOnUse">
<stop stop-color="#EE3E4B"/>
<stop offset="1" stop-color="#0039A6"/>
</linearGradient>
</defs>
</svg>
