<svg width="292" height="368" viewBox="0 0 292 368" fill="none" xmlns="http://www.w3.org/2000/svg">
<mask id="mask0_195_100" style="mask-type:alpha" maskUnits="userSpaceOnUse" x="0" y="0" width="292" height="368">
<rect width="292" height="368" rx="2" fill="#FCFCFC"/>
</mask>
<g mask="url(#mask0_195_100)">
<g opacity="0.8" filter="url(#filter0_f_195_100)">
<path fill-rule="evenodd" clip-rule="evenodd" d="M520.048 205.53C589.739 222.945 694.183 152.25 752.822 193.772C841.048 256.244 1042.51 223.529 1028.9 330.809C1019.85 402.18 1214.98 514.16 1101.91 558.901C1042.64 582.354 693.052 494.686 628.106 572.667C536.478 633.881 549.568 838.573 440.267 824.642C336.931 811.471 402.383 633.663 359.894 538.481C310.144 427.035 126.75 350.778 179.645 240.812C231.695 132.603 403.599 176.431 520.048 205.53Z" fill="url(#paint0_linear_195_100)"/>
</g>
</g>
<defs>
<filter id="filter0_f_195_100" x="-99.8375" y="-98.3687" width="1507.1" height="1193.69" filterUnits="userSpaceOnUse" color-interpolation-filters="sRGB">
<feFlood flood-opacity="0" result="BackgroundImageFix"/>
<feBlend mode="normal" in="SourceGraphic" in2="BackgroundImageFix" result="shape"/>
<feGaussianBlur stdDeviation="135" result="effect1_foregroundBlur_195_100"/>
</filter>
<linearGradient id="paint0_linear_195_100" x1="517.302" y1="141.383" x2="609.328" y2="803.959" gradientUnits="userSpaceOnUse">
<stop stop-color="#EE3E4B"/>
<stop offset="1" stop-color="#0039A6"/>
</linearGradient>
</defs>
</svg>
