<svg width="292" height="368" viewBox="0 0 292 368" fill="none" xmlns="http://www.w3.org/2000/svg">
<mask id="mask0_195_39" style="mask-type:alpha" maskUnits="userSpaceOnUse" x="0" y="0" width="292" height="368">
<rect width="292" height="368" fill="#FCFCFC"/>
</mask>
<g mask="url(#mask0_195_39)">
<g opacity="0.8" filter="url(#filter0_f_195_39)">
<path fill-rule="evenodd" clip-rule="evenodd" d="M692.949 471.301C647.639 527.043 667.404 651.604 604.943 687.118C510.968 740.551 455.216 936.886 363.812 879.097C303.004 840.652 118.879 969.925 126.278 848.551C130.157 784.925 357.724 505.446 314.62 413.572C298.009 304.636 107.063 229.739 166.005 136.645C221.732 48.6303 355.04 183.273 459.258 185.129C581.285 187.302 728.081 53.514 805.264 148.03C881.213 241.035 768.659 378.16 692.949 471.301Z" fill="url(#paint0_linear_195_39)"/>
</g>
</g>
<defs>
<filter id="filter0_f_195_39" x="-143.939" y="-163.178" width="1244.44" height="1335.05" filterUnits="userSpaceOnUse" color-interpolation-filters="sRGB">
<feFlood flood-opacity="0" result="BackgroundImageFix"/>
<feBlend mode="normal" in="SourceGraphic" in2="BackgroundImageFix" result="shape"/>
<feGaussianBlur stdDeviation="135" result="effect1_foregroundBlur_195_39"/>
</filter>
<linearGradient id="paint0_linear_195_39" x1="752.214" y1="496.001" x2="113.086" y2="298.537" gradientUnits="userSpaceOnUse">
<stop stop-color="#EE3E4B"/>
<stop offset="1" stop-color="#0039A6"/>
</linearGradient>
</defs>
</svg>
