<?xml version="1.0" standalone="no"?>
<!DOCTYPE svg PUBLIC "-//W3C//DTD SVG 20010904//EN"
 "http://www.w3.org/TR/2001/REC-SVG-20010904/DTD/svg10.dtd">
<svg version="1.0" xmlns="http://www.w3.org/2000/svg"
 width="700.000000pt" height="700.000000pt" viewBox="0 0 700.000000 700.000000"
 preserveAspectRatio="xMidYMid meet">
<metadata>
Created by potrace 1.14, written by Peter Selinger 2001-2017
</metadata>
<g transform="translate(0.000000,700.000000) scale(0.100000,-0.100000)"
fill="#000000" stroke="none">
<path d="M0 3500 l0 -3500 3500 0 3500 0 0 3500 0 3500 -3500 0 -3500 0 0
-3500z m2490 1514 l0 -546 230 224 c126 122 368 359 538 525 l308 302 82 -82
82 -82 -619 -605 -620 -605 0 -407 c-1 -225 1 -408 4 -408 3 0 508 493 1122
1095 l1117 1096 84 -83 83 -83 -115 -110 c-63 -60 -606 -591 -1206 -1179
l-1090 -1070 0 -778 0 -778 -120 0 -120 0 0 2060 0 2060 120 0 120 0 0 -546z"/>
</g>
</svg>
