<?xml version="1.0" encoding="utf-8"?><svg xmlns="http://www.w3.org/2000/svg" xmlns:xlink="http://www.w3.org/1999/xlink"><symbol viewBox="0 0 16 16" id="arrow-link" xmlns="http://www.w3.org/2000/svg"><path d="M6 7l2 2 2-2"/></symbol><symbol viewBox="0 0 32 32" id="arrow-step" xmlns="http://www.w3.org/2000/svg"><path d="M10 13l6 6 6-6" stroke-width="2"/></symbol><symbol viewBox="0 0 48 48" id="arrow-swiper-next" xmlns="http://www.w3.org/2000/svg"><path d="M36.354 24.354a.5.5 0 000-.708l-3.182-3.181a.5.5 0 10-.707.707L35.293 24l-2.828 2.828a.5.5 0 10.707.707l3.182-3.181zM12 24.5h24v-1H12v1z"/></symbol><symbol viewBox="0 0 48 48" id="arrow-swiper-prev" xmlns="http://www.w3.org/2000/svg"><path d="M11.646 23.646a.5.5 0 000 .708l3.182 3.181a.5.5 0 10.708-.707L12.707 24l2.829-2.828a.5.5 0 10-.708-.707l-3.182 3.181zM36 23.5H12v1h24v-1z"/></symbol><symbol viewBox="0 0 40 40" id="case-preview-arrow" xmlns="http://www.w3.org/2000/svg"><path d="M20.354 32.354a.5.5 0 01-.708 0l-3.181-3.182a.5.5 0 11.707-.707L20 31.293l2.828-2.828a.5.5 0 11.707.707l-3.181 3.182zM20.5 8v24h-1V8h1z"/></symbol><symbol viewBox="0 0 20 20" id="facebook" xmlns="http://www.w3.org/2000/svg"><path d="M11.118 17.5v-6.842h2.211l.332-2.667h-2.543V6.29c0-.772.207-1.298 1.272-1.298h1.36V2.604a17.503 17.503 0 00-1.981-.105c-1.96 0-3.302 1.243-3.302 3.525V7.99H6.25v2.667h2.217V17.5h2.651z"/></symbol><symbol viewBox="0 0 20 20" id="instagram" xmlns="http://www.w3.org/2000/svg"><path d="M13.031 2.5H6.97A4.474 4.474 0 002.5 6.969v6.062A4.474 4.474 0 006.969 17.5h6.062a4.474 4.474 0 004.469-4.469V6.97A4.474 4.474 0 0013.031 2.5zm2.96 10.531a2.96 2.96 0 01-2.96 2.96H6.97a2.96 2.96 0 01-2.96-2.96V6.97a2.96 2.96 0 012.96-2.96h6.062a2.96 2.96 0 012.96 2.96v6.062z" stroke-width=".2"/><path d="M10.001 6.25A3.754 3.754 0 006.251 10a3.754 3.754 0 003.75 3.75 3.754 3.754 0 003.75-3.75 3.754 3.754 0 00-3.75-3.75zm0 6.042a2.291 2.291 0 110-4.583 2.291 2.291 0 010 4.583z" stroke-width=".2"/><path d="M13.749 7.188a.938.938 0 100-1.875.938.938 0 000 1.875z"/></symbol><symbol viewBox="0 0 2 84" id="line-button-left" xmlns="http://www.w3.org/2000/svg"><path stroke-width="2" d="M1 84V0"/></symbol><symbol viewBox="0 0 26 84" id="line-button-right" xmlns="http://www.w3.org/2000/svg"><path stroke-width="2" d="M25 60V0M1.293 83.293l24-24"/></symbol><symbol viewBox="0 0 100 2" id="line-button-vertical" xmlns="http://www.w3.org/2000/svg"><line y1="1" x2="100%" y2="1" stroke-width="2"/></symbol><symbol viewBox="0 0 20 20" id="modal-close" xmlns="http://www.w3.org/2000/svg"><path d="M2 2l8 8m0 0l-8 8m8-8l8 8m-8-8l8-8" stroke-width="2"/></symbol><symbol viewBox="0 0 24 24" id="phone" xmlns="http://www.w3.org/2000/svg"><path d="M6 3.905C6 2.853 6.796 2 7.778 2h8.444C17.204 2 18 2.853 18 3.905v16.19C18 21.147 17.204 22 16.222 22H7.778C6.796 22 6 21.147 6 20.095V3.905z" stroke-width="2"/><path d="M9.556 2.952c0-.526.398-.952.888-.952h3.112c.49 0 .888.426.888.952s-.398.953-.888.953h-3.112c-.49 0-.888-.427-.888-.953z" stroke-width="2"/></symbol><symbol viewBox="0 0 20 20" id="service-off" xmlns="http://www.w3.org/2000/svg"><path d="M6 6l4 4m4 4l-4-4m0 0l-4 4m4-4l4-4" stroke-width="2" stroke-linecap="round"/></symbol><symbol viewBox="0 0 20 20" id="service-on" xmlns="http://www.w3.org/2000/svg"><path d="M14.385 6.24l-5.997 5.525-2.743-2.732a.96.96 0 00-.675-.28.982.982 0 00-.681.265.932.932 0 00-.289.656.911.911 0 00.273.663l3.413 3.383a.86.86 0 00.67.28c.246-.007.482-.095.67-.249l6.667-6.146a.916.916 0 00.064-1.304 1.006 1.006 0 00-1.372-.062z"/></symbol><symbol viewBox="0 0 20 20" id="telegram" xmlns="http://www.w3.org/2000/svg"><path d="M2.17 9.194l8.935-3.71c.882-.387 3.873-1.624 3.873-1.624s1.38-.54 1.265.773c-.038.541-.345 2.435-.652 4.483l-.958 6.068s-.077.89-.729 1.044c-.652.154-1.726-.541-1.917-.696-.154-.116-2.876-1.855-3.874-2.705-.268-.232-.575-.696.039-1.237 1.38-1.275 3.03-2.86 4.026-3.865.46-.464.92-1.546-.997-.232l-5.407 3.672s-.613.386-1.764.039a79.315 79.315 0 01-2.492-.812s-.92-.58.652-1.198z"/></symbol><symbol viewBox="0 0 20 20" id="vkontakte" xmlns="http://www.w3.org/2000/svg"><path fill-rule="evenodd" clip-rule="evenodd" d="M19.541 5.677c.14-.39 0-.677-.662-.677h-2.188c-.556 0-.812.248-.951.521 0 0-1.113 2.283-2.69 3.767-.51.429-.741.565-1.02.565-.138 0-.34-.136-.34-.526v-3.65c0-.468-.161-.677-.625-.677H7.627c-.348 0-.557.217-.557.423 0 .444.788.547.87 1.796v2.713c0 .594-.128.702-.406.702-.742 0-2.546-2.293-3.617-4.918-.21-.51-.42-.716-.979-.716H.75C.125 5 0 5.248 0 5.521c0 .488.742 2.908 3.454 6.108C5.262 13.815 7.809 15 10.127 15c1.391 0 1.563-.263 1.563-.716v-1.652c0-.527.132-.632.572-.632.325 0 .881.137 2.18 1.19 1.483 1.25 1.727 1.81 2.562 1.81h2.188c.625 0 .938-.263.757-.783-.197-.517-.905-1.268-1.845-2.158-.51-.508-1.275-1.054-1.507-1.327-.324-.352-.232-.508 0-.82 0 0 2.666-3.162 2.944-4.235z"/></symbol><symbol viewBox="0 0 12 12" id="whatsapp" xmlns="http://www.w3.org/2000/svg"><path d="M3.314 10.097l.182.107c.762.45 1.636.688 2.527.689h.002c2.737 0 4.965-2.218 4.966-4.943 0-1.32-.516-2.562-1.453-3.496a4.945 4.945 0 00-3.511-1.45c-2.74 0-4.967 2.217-4.968 4.942 0 .934.262 1.844.759 2.63l.118.187-.502 1.824 1.88-.49zM0 12l.848-3.081A5.914 5.914 0 01.05 5.946C.051 2.667 2.732 0 6.025 0a5.95 5.95 0 014.227 1.744A5.898 5.898 0 0112 5.95c-.001 3.278-2.682 5.946-5.975 5.946h-.002c-1 0-1.983-.25-2.856-.724L0 12z"/><path fill-rule="evenodd" clip-rule="evenodd" d="M4.782 3.893c-.093-.205-.19-.21-.28-.213-.071-.003-.154-.003-.236-.003a.456.456 0 00-.33.155c-.114.123-.434.421-.434 1.028s.444 1.193.505 1.276c.062.082.857 1.367 2.116 1.861 1.047.411 1.26.33 1.487.309.227-.02.733-.298.836-.586.103-.288.103-.535.072-.587-.03-.051-.113-.082-.237-.144-.124-.061-.733-.36-.846-.4-.114-.042-.197-.063-.28.06-.082.124-.32.402-.391.484-.073.083-.145.093-.269.031-.124-.062-.523-.192-.996-.612a3.718 3.718 0 01-.69-.854c-.071-.123-.007-.19.055-.252.056-.055.124-.144.186-.215.062-.073.083-.124.124-.206.041-.082.02-.155-.01-.216-.031-.062-.272-.672-.382-.916"/></symbol></svg>