<svg width="200" height="200" viewBox="0 0 200 200" fill="none" xmlns="http://www.w3.org/2000/svg">
<path d="M0 0H200V160L160 200H0V0Z" fill="#EE3E4B"/>
<path d="M130.015 119.048H127.846V80.9524H130.015V91.09L140.011 81.3333L141.539 82.836L130.015 94.0741V101.672L150.852 81.3228L152.381 82.8254L130.015 104.656V119.048ZM89.9011 119.048H87.7328V80.9524H89.9011V91.09L99.897 81.3333L101.426 82.836L89.9011 94.0741V101.672L110.739 81.3228L112.267 82.8254L89.9011 104.656V119.048ZM49.7873 119.048H47.619V80.9524H49.7873V91.09L59.7832 81.3333L61.3119 82.836L49.7873 94.0741V101.672L70.6248 81.3228L72.1534 82.8254L49.7873 104.656V119.048Z" fill="white"/>
<path d="M130.015 119.198H130.165V119.048V104.719L152.486 82.9328L152.595 82.8258L152.486 82.7184L150.957 81.2158L150.853 81.1128L150.747 81.2154L130.165 101.316V94.1373L141.644 82.9434L141.754 82.8364L141.645 82.729L140.116 81.2264L140.011 81.1234L139.906 81.226L130.165 90.7339V80.9524V80.8024H130.015H127.846H127.696V80.9524V119.048V119.198H127.846H130.015ZM89.9011 119.198H90.0511V119.048V104.719L112.372 82.9328L112.482 82.8258L112.372 82.7184L110.844 81.2158L110.739 81.1128L110.634 81.2154L90.0511 101.316V94.1373L101.53 82.9434L101.64 82.8364L101.531 82.729L100.002 81.2264L99.8973 81.1234L99.7922 81.226L90.0511 90.7339V80.9524V80.8024H89.9011H87.7328H87.5828V80.9524V119.048V119.198H87.7328H89.9011ZM49.7873 119.198H49.9373V119.048V104.719L72.2582 82.9328L72.3678 82.8258L72.2586 82.7184L70.7299 81.2158L70.6251 81.1128L70.52 81.2154L49.9373 101.316V94.1373L61.4166 82.9434L61.5263 82.8364L61.417 82.729L59.8884 81.2264L59.7836 81.1234L59.6785 81.226L49.9373 90.7339V80.9524V80.8024H49.7873H47.619H47.469V80.9524V119.048V119.198H47.619H49.7873Z" stroke="white" stroke-opacity="0.2" stroke-width="0.3"/>
</svg>
